<svg width="1440" height="85" viewBox="0 0 1440 85" fill="none" xmlns="http://www.w3.org/2000/svg">
<path d="M0 83.829L33.5031 1.13064H167.121L161.209 15.5463H70.2579L62.3748 35.2518H144.457L138.545 49.6675H56.4625L42.6671 83.829H0Z" fill="#FFF5F0"/>
<path d="M320.472 1.13064H363.139L341.46 54.8361C339.03 60.8662 333.413 66.1425 324.61 70.6651C315.807 75.1876 304.607 78.7142 291.009 81.2447C277.41 83.7482 262.235 85 245.484 85C228.732 85 214.608 83.7482 203.112 81.2447C191.616 78.7142 183.306 75.1876 178.182 70.6651C173.058 66.1425 171.711 60.8662 174.142 54.8361L195.82 1.13064H238.488L217.302 53.342C216.119 56.4917 216.711 59.2914 219.076 61.7411C221.506 64.1908 225.513 66.1156 231.097 67.5154C236.681 68.9153 243.579 69.6152 251.79 69.6152C260.068 69.6152 267.556 68.9153 274.257 67.5154C281.023 66.1156 286.574 64.1908 290.91 61.7411C295.311 59.2914 298.103 56.4917 299.286 53.342L320.472 1.13064Z" fill="#FFF5F0"/>
<path d="M567.039 1.13064L533.536 83.829H496.683L430.169 31.7791H428.593L407.407 83.829H364.74L398.243 1.13064H435.688L501.905 53.1401H503.581L524.569 1.13064H567.039Z" fill="#FFF5F0"/>
<path d="M588.693 15.5463L594.605 1.13064H760.347L754.435 15.5463H692.651L665.06 83.829H622.886L650.477 15.5463H588.693Z" fill="#FFF5F0"/>
<path d="M754.139 83.829L787.642 1.13064H830.309L802.719 69.4133H889.235L883.323 83.829H754.139Z" fill="#FFF5F0"/>
<path d="M911.579 83.829L945.082 1.13064H1081.06L1075.15 15.5463H981.837L973.954 35.2518H1060.27L1054.36 49.6675H968.041L960.158 69.4133H1053.87L1047.96 83.829H911.579Z" fill="#FFF5F0"/>
<path d="M1081.48 83.829L1114.99 1.13064H1194.61C1209.85 1.13064 1222.39 2.23436 1232.25 4.44181C1242.17 6.64925 1249.13 9.78543 1253.14 13.8504C1257.21 17.8884 1258.16 22.6532 1256 28.1449C1253.76 33.6366 1248.93 38.3476 1241.51 42.2779C1234.15 46.2082 1224.56 49.2367 1212.74 51.3634C1200.98 53.4632 1187.35 54.5131 1171.84 54.5131H1118.53L1124.45 40.4608H1170.76C1178.91 40.4608 1185.87 40.0032 1191.65 39.0879C1197.43 38.1726 1202 36.7997 1205.35 34.9691C1208.76 33.1386 1211 30.8638 1212.05 28.1449C1213.16 25.3721 1212.77 23.057 1210.86 21.1995C1208.96 19.3151 1205.51 17.8884 1200.52 16.9192C1195.53 15.9232 1188.96 15.4252 1180.81 15.4252H1152.04L1124.15 83.829H1081.48ZM1205.64 46.1948L1240.62 83.829H1193.52L1159.62 46.1948H1205.64Z" fill="#FFF5F0"/>
<path d="M1398.33 25.1568C1398.66 21.7918 1396.26 19.194 1391.14 17.3634C1386.08 15.5329 1378.43 14.6176 1368.18 14.6176C1361.22 14.6176 1355.17 15.0214 1350.05 15.829C1344.93 16.6097 1340.82 17.6999 1337.73 19.0998C1334.71 20.4727 1332.84 22.061 1332.12 23.8646C1331.39 25.3452 1331.62 26.6374 1332.81 27.7411C1334.05 28.8448 1335.99 29.8005 1338.62 30.6081C1341.31 31.3888 1344.5 32.0752 1348.18 32.6675C1351.86 33.2328 1355.77 33.7173 1359.9 34.1211L1377.25 35.8979C1385.72 36.7055 1393.34 37.7823 1400.11 39.1283C1406.94 40.4743 1412.65 42.1298 1417.25 44.095C1421.92 46.0602 1425.2 48.3753 1427.11 51.0404C1429.01 53.7055 1429.28 56.7609 1427.9 60.2066C1425.79 65.2676 1420.9 69.6556 1413.21 73.3705C1405.53 77.0586 1395.44 79.9256 1382.96 81.9715C1370.48 83.9905 1356.03 85 1339.61 85C1323.31 85 1309.55 83.977 1298.32 81.9311C1287.08 79.8852 1278.91 76.8567 1273.78 72.8456C1268.72 68.8076 1267.21 63.8139 1269.25 57.8646H1310.54C1309.81 60.6374 1310.8 62.9525 1313.49 64.81C1316.25 66.6405 1320.36 68.0269 1325.81 68.9691C1331.26 69.8844 1337.67 70.342 1345.02 70.342C1352.32 70.342 1358.79 69.9113 1364.44 69.0499C1370.15 68.1884 1374.78 66.9905 1378.33 65.4561C1381.88 63.9216 1384.05 62.1584 1384.83 60.1663C1385.62 58.3088 1384.93 56.7474 1382.76 55.4822C1380.6 54.2169 1377.12 53.1401 1372.32 52.2518C1367.59 51.3365 1361.71 50.5289 1354.68 49.829L1333.59 47.5677C1317.3 45.8717 1304.99 43.2201 1296.64 39.6128C1288.3 36.0055 1285.31 31.1465 1287.68 25.0356C1289.78 20.0285 1294.87 15.654 1302.95 11.9121C1311.09 8.14331 1321.34 5.22249 1333.69 3.14964C1346.11 1.04988 1359.67 0 1374.39 0C1389.37 0 1402.01 1.06334 1412.33 3.19003C1422.64 5.28979 1430.16 8.22407 1434.89 11.9929C1439.62 15.7617 1441.07 20.1496 1439.23 25.1568H1398.33Z" fill="#FFF5F0"/>
</svg>
