<svg width="408" height="408" viewBox="0 0 408 408" fill="none" xmlns="http://www.w3.org/2000/svg">
<path d="M8.74204 407.225C6.53027 407.226 4.30551 406.301 2.61443 404.612C0.410666 402.411 -0.491146 399.301 0.260617 396.497L104.907 6.3295C105.293 4.88639 106.059 3.56221 107.121 2.50136C108.183 1.44052 109.509 0.674987 110.954 0.288225C113.897 -0.497293 117.064 0.349688 119.217 2.50086L405.113 288.122C407.268 290.274 408.117 293.438 407.328 296.377C406.939 297.824 406.173 299.148 405.113 300.207C404.055 301.265 402.729 302.03 401.282 302.418L10.7377 406.965C10.084 407.14 9.41327 407.225 8.74204 407.225ZM113.159 2.04565C112.6 2.04565 112.037 2.1176 111.485 2.26502C110.385 2.55934 109.378 3.14148 108.57 3.94848C107.761 4.75548 107.18 5.76186 106.886 6.85868L20.6777 380.653C20.115 382.753 20.8137 385.104 22.5013 386.791C24.1894 388.478 26.5432 389.177 28.6459 388.614L400.75 300.442C401.851 300.146 402.859 299.565 403.664 298.76C404.471 297.955 405.053 296.947 405.349 295.847C405.949 293.612 405.303 291.206 403.664 289.569L117.769 3.94797C116.535 2.71573 114.865 2.04565 113.159 2.04565Z" fill="#FECBB2"/>
</svg>
